{"glyphs":{":":{"x_min":0,"x_max":440,"ha":440,"o":"m 220 512 q 277 512 322 483 q 366 455 366 417 q 366 381 322 352 q 277 323 220 323 q 162 323 117 352 q 73 380 73 417 q 73 455 118 484 q 162 512 220 512 z m 220 179 q 277 179 322 150 q 366 122 366 85 q 366 48 322 19 q 277 -10 220 -10 q 162 -10 118 19 q 73 47 73 85 q 73 122 118 151 q 162 179 220 179 z"},"$":{"x_min":0,"x_max":1096,"ha":1096,"o":"m 938 647 l 938 407 q 694 562 430 562 q 278 562 278 517 q 278 479 372 475 q 397 473 448 466 q 517 456 542 454 l 642 446 q 818 432 928 368 q 1039 304 1039 216 q 1039 117 939 59 q 839 0 669 0 l 628 1 l 628 -109 l 470 -109 l 470 17 q 320 43 224 83 l 76 17 l 76 333 q 142 228 292 169 q 441 110 644 110 q 817 110 817 154 q 817 193 717 202 q 701 203 645 208 l 561 216 q 288 243 172 300 q 56 357 56 466 q 56 556 156 611 q 255 667 418 667 q 433 667 470 665 l 470 756 l 628 756 l 628 644 q 724 622 776 599 z"},"?":{"x_min":0,"x_max":775,"ha":775,"o":"m 379 179 q 437 179 481 150 q 526 122 526 85 q 526 48 481 19 q 437 -10 379 -10 q 321 -10 277 19 q 232 47 232 85 q 232 122 277 151 q 321 179 379 179 z m 434 236 l 387 236 q 384 261 384 271 q 384 348 431 410 q 471 463 471 501 q 471 587 357 587 q 255 587 255 481 q 255 437 291 405 q 254 393 209 393 q 26 393 26 506 q 26 581 124 633 q 222 686 363 686 q 514 686 628 625 q 742 565 742 485 q 742 374 517 325 q 438 308 434 236 z"},"<":{"x_min":0,"x_max":500,"ha":500,"o":"m 466 679 l 466 462 l 264 338 l 465 215 l 466 -1 l 33 249 l 33 430 z"},"'":{"x_min":0,"x_max":264,"ha":264,"o":"m 212 399 l 51 399 l 9 667 l 255 667 z"},"=":{"x_min":0,"x_max":500,"ha":500,"o":"m -2 501 l 502 501 l 502 405 l -2 405 z m -2 343 l 502 343 l 502 246 l -2 246 z"},"a":{"x_min":0,"x_max":977,"ha":977,"o":"m 914 174 q 982 165 982 99 q 982 -22 778 -22 q 608 -22 582 81 q 529 22 466 0 q 402 -22 287 -22 q 39 -22 39 96 q 39 221 268 253 l 328 262 l 562 294 l 562 333 q 562 391 450 391 q 312 391 312 328 q 312 312 328 294 q 258 276 162 276 q 55 276 55 340 q 55 406 172 448 q 289 489 474 489 q 670 489 755 452 q 840 414 840 328 l 840 146 q 840 76 878 76 q 918 76 918 134 q 918 146 914 174 z m 562 215 l 447 199 l 413 195 q 319 183 319 128 q 319 76 403 76 q 472 76 517 105 q 562 134 562 177 z"},"L":{"x_min":0,"x_max":1326,"ha":1326,"o":"m 1306 357 l 1306 0 l 7 0 l 251 154 l 251 510 l 7 667 l 840 667 l 596 510 l 596 132 l 1007 132 z"},"3":{"x_min":0,"x_max":1118,"ha":1118,"o":"m 447 292 l 447 391 q 465 390 468 390 q 627 390 666 403 q 704 416 704 471 q 704 574 520 574 q 337 574 337 473 q 337 449 352 420 q 310 415 281 415 q 186 415 127 444 q 68 473 68 521 q 68 594 200 641 q 333 689 537 689 q 765 689 907 633 q 1050 576 1050 486 q 1050 381 802 336 q 1088 303 1088 174 q 1088 91 935 34 q 782 -22 556 -22 q 329 -22 179 30 q 30 83 30 162 q 30 212 94 245 q 158 278 254 278 l 330 277 l 352 277 q 320 244 320 206 q 320 101 516 101 q 719 101 719 200 q 719 252 671 272 q 623 292 492 292 z"},";":{"x_min":0,"x_max":440,"ha":440,"o":"m 175 522 q 232 522 277 494 q 321 465 321 428 q 321 391 277 362 q 232 333 175 333 q 117 333 73 362 q 28 391 28 428 q 28 465 73 494 q 117 522 175 522 z m 35 -167 l 35 -144 q 175 -86 209 4 q 173 -12 144 -12 q 95 -12 62 17 q 28 45 28 86 q 28 132 72 163 q 116 193 181 193 q 245 193 288 154 q 332 115 332 56 q 332 -26 244 -92 q 156 -158 35 -167 z"},"J":{"x_min":0,"x_max":1046,"ha":1046,"o":"m 39 296 l 290 329 q 287 314 285 306 q 274 250 274 227 q 274 101 391 101 q 452 101 473 133 q 494 165 494 259 l 494 511 l 249 667 l 1083 667 l 838 511 l 838 228 q 838 126 790 83 q 661 -34 400 -34 q 216 -34 111 28 q 6 89 6 196 q 6 242 39 296 z"},"V":{"x_min":0,"x_max":1338,"ha":1338,"o":"m 1404 667 l 1215 544 l 938 111 l 1104 0 l 351 0 l 506 111 l 178 511 l -67 667 l 771 667 l 542 522 l 797 228 l 993 522 l 786 667 z"},"\"":{"x_min":0,"x_max":523,"ha":523,"o":"m 205 399 l 51 399 l 9 667 l 248 667 z m 471 399 l 317 399 l 276 667 l 514 667 z"},"7":{"x_min":0,"x_max":966,"ha":966,"o":"m 47 667 l 985 667 l 985 609 l 970 595 q 696 348 696 114 q 696 74 714 0 l 329 0 q 342 239 726 528 l 302 528 l 47 332 z"},"S":{"x_min":0,"x_max":1201,"ha":1201,"o":"m 95 -26 l 95 308 q 185 205 341 147 q 498 90 687 90 q 885 90 885 143 q 885 168 859 177 q 832 185 731 193 l 585 204 q 332 223 227 265 q 60 332 60 455 q 60 570 172 635 q 284 701 480 701 q 670 701 820 648 l 848 639 l 1035 696 l 1035 415 q 773 585 477 585 q 298 585 298 532 q 298 507 341 495 q 385 482 505 472 l 646 461 q 913 439 1003 396 q 1155 324 1155 203 q 1155 95 1035 31 q 915 -34 713 -34 q 496 -34 269 38 z"},"}":{"x_min":0,"x_max":528,"ha":528,"o":"m 277 265 q 217 305 217 393 l 217 593 l 217 604 q 217 642 201 651 q 185 660 117 660 l 50 660 l 50 700 l 299 700 q 438 700 438 556 l 438 364 q 438 289 511 279 l 511 239 q 450 230 443 194 l 439 171 l 438 166 l 438 -25 q 438 -108 402 -140 q 366 -171 272 -171 l 50 -171 l 50 -131 l 132 -131 q 191 -131 204 -123 q 217 -115 217 -77 l 217 -65 l 217 136 q 217 221 277 265 z"},"Z":{"x_min":0,"x_max":1218,"ha":1218,"o":"m 1200 667 l 586 132 l 939 132 l 1171 375 l 1171 0 l 18 0 l 630 548 l 330 548 l 116 357 l 116 667 z"},"x":{"x_min":0,"x_max":1194,"ha":1194,"o":"m 1149 478 l 1021 411 l 751 251 l 1040 78 l 1207 0 l 560 0 l 671 67 l 547 140 l 436 78 l 547 0 l -16 0 l 162 78 l 425 220 l 135 400 l -21 478 l 626 478 l 526 389 l 625 321 l 734 389 l 635 478 z"},")":{"x_min":0,"x_max":731,"ha":731,"o":"m 33 -133 l 33 -119 q 386 24 386 276 q 386 415 291 527 q 195 640 33 692 l 33 704 q 342 660 517 550 q 691 439 691 286 q 691 142 516 30 q 341 -82 33 -133 z"},"&":{"x_min":0,"x_max":1381,"ha":1381,"o":"m 883 454 l 1363 454 l 1183 339 l 1175 324 q 1146 263 1094 190 q 1167 156 1203 156 q 1239 156 1264 182 q 1289 208 1289 245 q 1289 259 1278 282 q 1369 256 1369 153 q 1369 -17 1121 -17 q 996 -17 899 33 q 756 -22 564 -22 q 317 -22 172 37 q 27 97 27 198 q 27 283 126 344 q 226 406 404 432 q 380 482 380 519 q 380 602 458 653 q 536 704 663 704 q 766 704 838 658 q 910 613 910 547 q 910 500 865 457 q 819 413 754 397 q 860 310 958 258 q 967 273 972 281 q 996 319 1005 339 z m 668 469 q 745 506 745 548 q 745 599 678 599 q 609 599 609 552 q 609 536 634 500 q 660 464 668 469 z m 468 339 q 402 321 402 272 q 402 200 465 151 q 528 102 620 102 q 671 102 731 121 l 702 143 q 586 226 468 339 z"},"_":{"x_min":0,"x_max":500,"ha":500,"o":"m 0 -43 l 500 -43 l 500 -168 l 0 -168 z"},"v":{"x_min":0,"x_max":1065,"ha":1065,"o":"m 1133 478 l 944 356 l 744 100 l 877 0 l 220 0 l 354 100 l 121 356 l -68 478 l 588 478 l 447 367 l 606 178 l 744 367 l 603 478 z"},"O":{"x_min":0,"x_max":1337,"ha":1337,"o":"m 679 689 q 932 689 1118 577 q 1304 464 1304 312 q 1304 171 1116 69 q 929 -33 670 -33 q 417 -33 225 71 q 33 174 33 311 q 33 466 224 577 q 415 689 679 689 z m 669 574 q 565 574 499 506 q 434 438 434 332 q 434 225 498 161 q 562 97 669 97 q 776 97 840 161 q 904 225 904 332 q 904 438 838 506 q 772 574 669 574 z"},"(":{"x_min":0,"x_max":731,"ha":731,"o":"m 698 704 l 698 690 q 345 547 345 294 q 345 156 440 43 q 536 -69 698 -122 l 698 -133 q 389 -89 214 21 q 40 132 40 285 q 40 429 215 541 q 390 652 698 704 z"},"C":{"x_min":0,"x_max":1283,"ha":1283,"o":"m 1213 678 l 1213 365 q 1059 565 747 565 q 435 565 435 332 q 435 214 519 162 q 604 110 792 110 q 970 110 1088 167 q 1207 225 1201 309 q 1201 312 1199 318 q 1250 289 1250 236 q 1250 115 1102 41 q 954 -34 712 -34 q 435 -34 234 69 q 33 172 33 315 q 33 460 235 574 q 438 689 694 689 q 916 689 1087 605 z"},"W":{"x_min":0,"x_max":1798,"ha":1798,"o":"m 1865 667 l 1643 511 l 1416 122 l 1571 0 l 918 0 l 1074 133 l 907 413 l 753 122 l 887 0 l 235 0 l 379 122 l 122 533 l -67 667 l 600 667 l 447 533 l 618 279 l 765 533 l 616 667 l 1292 667 l 1131 556 l 1305 303 l 1453 556 l 1325 667 z"},"A":{"x_min":0,"x_max":1354,"ha":1354,"o":"m 1042 667 l 883 545 l 1162 156 l 1414 0 l 574 0 l 805 137 l 775 183 l 391 183 l 361 137 l 562 0 l -60 0 l 136 156 l 411 545 l 254 667 z m 574 473 l 456 292 l 699 292 z"},"f":{"x_min":0,"x_max":746,"ha":746,"o":"m 684 478 l 646 381 l 480 381 l 480 122 l 702 0 l -20 0 l 202 122 l 202 381 l 23 381 l 69 478 l 208 478 l 208 519 q 208 604 293 652 q 379 700 528 700 q 643 700 720 667 q 798 635 798 586 q 798 511 654 511 q 631 511 582 519 q 589 543 589 559 q 589 608 534 608 q 480 608 480 519 l 480 478 z"},"Q":{"x_min":0,"x_max":1347,"ha":1347,"o":"m 1129 -179 l 671 -179 q 659 -134 659 -106 q 659 -74 671 -34 q 416 -34 225 71 q 33 175 33 313 q 33 465 223 577 q 413 689 670 689 q 930 689 1122 576 q 1314 463 1314 310 q 1314 199 1196 111 q 1077 23 871 -20 q 894 -63 938 -78 q 982 -93 1129 -105 z m 493 154 q 510 297 634 297 q 786 297 832 119 q 914 193 914 312 q 914 565 667 565 q 433 565 433 312 q 433 217 493 154 z m 695 107 q 699 130 699 142 q 699 216 630 216 q 554 216 554 122 q 604 106 655 106 z"},"w":{"x_min":0,"x_max":1547,"ha":1547,"o":"m 1616 478 l 1438 367 l 1260 78 l 1360 0 l 804 0 l 904 78 l 775 261 l 664 78 l 764 0 l 177 0 l 299 100 l 121 356 l -68 478 l 518 478 l 407 367 l 543 178 l 652 378 l 530 478 l 1127 478 l 1000 367 l 1145 167 l 1258 367 l 1142 478 z"},"-":{"x_min":0,"x_max":444,"ha":444,"o":"m 0 321 l 444 321 l 444 154 l 0 154 z"},"E":{"x_min":0,"x_max":1405,"ha":1405,"o":"m 1316 667 l 1316 378 l 1066 557 l 596 557 l 596 411 l 854 411 l 1038 489 l 1038 188 l 854 279 l 596 279 l 596 132 l 1066 132 l 1335 323 l 1335 0 l 7 0 l 251 154 l 251 512 l 7 667 z"},"s":{"x_min":0,"x_max":888,"ha":888,"o":"m 792 478 l 792 300 q 590 398 381 398 q 250 398 250 365 q 250 338 304 338 l 443 333 q 629 333 741 281 q 853 229 853 142 q 853 -22 555 -22 q 393 -22 203 32 l 68 -24 l 68 197 q 163 139 297 100 q 432 60 539 60 l 581 60 l 657 77 q 663 81 663 87 q 663 123 575 123 q 48 123 48 317 q 48 490 364 490 q 514 490 655 440 z"},">":{"x_min":0,"x_max":500,"ha":500,"o":"m 33 -1 l 33 216 l 236 340 l 35 463 l 33 679 l 467 430 l 467 248 z"},"l":{"x_min":0,"x_max":580,"ha":580,"o":"m 432 700 l 432 122 l 621 0 l -35 0 l 154 122 l 154 567 l -35 689 z"},"8":{"x_min":0,"x_max":1225,"ha":1225,"o":"m 932 397 q 1175 352 1175 219 q 1175 108 1021 43 q 868 -22 606 -22 q 363 -22 206 28 q 49 78 49 155 q 49 231 222 268 q 54 333 54 445 q 54 561 195 625 q 337 689 593 689 q 804 689 950 639 q 1096 589 1096 517 q 1096 447 932 397 z m 809 425 q 833 466 833 491 q 833 540 769 560 q 706 579 547 579 q 336 579 336 507 q 336 454 487 445 l 584 439 l 725 434 z m 311 235 q 296 207 296 189 q 296 83 596 83 q 854 83 854 152 q 854 221 479 221 z"},"\\":{"x_min":0,"x_max":734,"ha":734,"o":"m 151 700 l 708 -100 l 590 -100 l 27 700 z"},"e":{"x_min":0,"x_max":885,"ha":885,"o":"m 856 208 l 327 208 q 327 79 561 79 q 782 79 852 163 q 861 143 861 130 q 861 60 760 17 q 659 -26 493 -26 q 285 -26 156 44 q 28 115 28 229 q 28 340 153 417 q 278 494 458 494 q 621 494 726 418 q 832 342 856 208 z m 616 292 q 616 402 476 402 q 414 402 372 371 q 330 339 330 292 z"},"b":{"x_min":0,"x_max":983,"ha":983,"o":"m 396 700 l 396 384 q 480 489 608 489 q 749 489 852 410 q 955 331 955 221 q 955 118 845 48 q 735 -22 574 -22 q 366 -22 267 111 l 140 0 l 118 0 l 118 567 l -71 689 z m 541 379 q 479 379 438 335 q 397 291 397 225 q 397 76 531 76 q 667 76 667 233 q 667 379 541 379 z"},"%":{"x_min":0,"x_max":1317,"ha":1317,"o":"m 321 685 q 438 685 526 627 q 615 570 615 495 q 615 421 523 365 q 432 309 312 309 q 192 309 103 363 q 13 417 13 490 q 13 567 106 626 q 200 685 321 685 z m 318 604 q 225 604 225 494 q 225 391 312 391 q 404 391 404 493 q 404 604 318 604 z m 934 667 l 1059 667 l 376 0 l 259 0 z m 1010 357 q 1126 357 1215 300 q 1304 242 1304 167 q 1304 94 1212 38 q 1120 -19 1000 -19 q 880 -19 791 36 q 702 90 702 163 q 702 239 795 298 q 888 357 1010 357 z m 1006 276 q 913 276 913 166 q 913 63 1001 63 q 1092 63 1092 166 q 1092 276 1006 276 z"},"m":{"x_min":0,"x_max":1685,"ha":1685,"o":"m 448 478 l 448 350 q 545 489 718 489 q 914 489 973 344 q 1049 489 1239 489 q 1371 489 1441 436 q 1512 383 1512 284 l 1512 122 l 1723 0 l 1118 0 l 1234 100 l 1234 272 q 1234 359 1129 359 q 1067 359 1026 321 q 985 283 985 225 l 985 100 l 1102 0 l 591 0 l 708 100 l 708 259 q 708 359 608 359 q 542 359 500 322 q 459 285 459 225 l 459 100 l 576 0 l -8 0 l 181 122 l 181 344 l -8 467 z"},"#":{"x_min":0,"x_max":1320,"ha":1320,"o":"m 1148 627 l 1049 464 l 1300 464 l 1265 394 l 1008 394 l 938 275 l 1192 275 l 1153 206 l 891 206 l 787 40 l 575 40 l 677 206 l 475 206 l 374 40 l 154 40 l 259 206 l 20 206 l 69 275 l 305 275 l 374 394 l 146 394 l 194 464 l 425 464 l 528 627 l 744 627 l 642 464 l 841 464 l 938 627 z m 796 394 l 595 394 l 516 275 l 726 275 z"},",":{"x_min":0,"x_max":440,"ha":440,"o":"m 75 -167 l 75 -144 q 215 -86 249 4 q 213 -12 184 -12 q 135 -12 102 17 q 68 45 68 86 q 68 132 112 163 q 156 193 221 193 q 285 193 328 154 q 372 115 372 56 q 372 -26 284 -92 q 196 -158 75 -167 z"},"n":{"x_min":0,"x_max":1140,"ha":1140,"o":"m -5 467 l 451 478 l 451 350 q 504 430 562 459 q 620 489 721 489 q 989 489 989 312 l 989 122 l 1178 0 l 594 0 l 711 100 l 711 261 q 711 359 603 359 q 540 359 501 320 q 462 281 462 218 l 462 100 l 579 0 l -5 0 l 184 122 l 184 344 z"},"h":{"x_min":0,"x_max":1126,"ha":1126,"o":"m 445 700 l 445 373 q 546 489 698 489 q 825 489 900 441 q 976 394 976 312 l 976 122 l 1165 0 l 579 0 l 698 111 l 698 260 q 698 365 596 365 q 445 365 445 215 l 445 111 l 564 0 l -55 0 l 167 122 l 167 567 l -21 689 z"},"z":{"x_min":0,"x_max":935,"ha":935,"o":"m 83 478 l 914 478 l 492 97 l 717 97 l 884 254 l 884 0 l 12 0 l 439 395 l 250 395 l 83 236 z"},"B":{"x_min":0,"x_max":1403,"ha":1403,"o":"m 7 667 l 979 667 q 1138 667 1237 618 q 1335 570 1335 492 q 1335 378 1042 344 q 1384 301 1384 162 q 1384 0 977 0 l 7 0 l 251 153 l 251 511 z m 596 404 l 875 404 q 987 404 987 473 q 987 548 872 548 l 596 548 z m 596 118 l 871 118 q 1008 118 1008 192 q 1008 272 905 272 l 596 272 z"},"K":{"x_min":0,"x_max":1540,"ha":1540,"o":"m 1542 667 l 1094 427 l 1327 156 l 1553 0 l 792 0 l 993 145 l 855 301 l 596 183 l 596 156 l 780 0 l 7 0 l 251 156 l 251 511 l 7 667 l 772 667 l 596 522 l 596 339 l 979 533 l 808 667 z"},"R":{"x_min":0,"x_max":1489,"ha":1489,"o":"m 17 667 l 824 667 l 946 667 l 1103 657 q 1220 642 1293 592 q 1367 542 1367 476 q 1367 349 1077 315 q 1175 291 1228 245 q 1280 200 1328 97 l 1489 0 l 1017 0 q 956 145 908 213 q 877 256 768 256 l 605 256 l 605 155 l 850 0 l 17 0 l 261 155 l 261 511 z m 605 388 l 824 388 l 892 389 q 1002 389 1002 461 q 1002 509 966 525 q 930 542 825 542 l 605 542 z"},"T":{"x_min":0,"x_max":1193,"ha":1193,"o":"m 1157 667 l 1180 344 l 924 548 l 769 548 l 769 156 l 1013 0 l 180 0 l 424 156 l 424 548 l 269 548 l 13 344 l 36 667 z"},"P":{"x_min":0,"x_max":1373,"ha":1373,"o":"m 7 667 l 888 667 q 1098 667 1232 599 q 1367 532 1367 426 q 1367 330 1253 274 q 1139 219 938 219 l 596 219 l 596 156 l 840 0 l 7 0 l 251 156 l 251 513 z m 596 344 l 850 344 q 935 344 967 365 q 1000 386 1000 440 q 1000 542 853 542 l 596 542 z"},"|":{"x_min":0,"x_max":500,"ha":500,"o":"m 140 667 l 361 667 l 361 -167 l 140 -167 z"},"t":{"x_min":0,"x_max":635,"ha":635,"o":"m 397 678 l 397 478 l 592 478 l 523 381 l 397 381 l 397 179 q 397 92 454 92 q 541 92 541 180 q 541 205 531 234 q 621 219 621 133 q 621 -23 370 -23 q 266 -23 193 20 q 119 62 119 122 l 119 381 l -31 381 l -31 425 q 86 446 205 521 q 324 595 375 678 z"},"M":{"x_min":0,"x_max":1704,"ha":1704,"o":"m 690 667 l 824 364 l 950 667 l 1697 667 l 1453 511 l 1453 156 l 1697 0 l 888 0 l 1119 156 l 1119 588 l 870 0 l 690 0 l 440 566 l 440 156 l 669 0 l 7 0 l 251 156 l 251 511 l 7 667 z"},"g":{"x_min":0,"x_max":919,"ha":919,"o":"m 725 426 q 724 438 724 447 q 724 522 822 522 q 915 522 915 457 q 915 409 847 409 l 837 409 q 839 422 839 430 q 839 466 810 466 q 780 466 780 429 q 780 410 785 404 l 812 372 q 830 349 830 327 q 830 266 726 224 q 622 183 470 183 q 391 183 343 194 l 287 207 q 269 211 247 211 q 168 211 168 168 q 168 139 219 139 l 292 141 l 435 145 l 604 150 q 749 150 834 99 q 920 47 920 -41 q 920 -222 487 -222 q 276 -222 141 -190 q 5 -158 5 -109 q 5 -54 142 -21 q 48 23 48 99 q 48 151 73 179 q 99 208 173 241 q 84 277 84 329 q 84 390 196 434 q 307 478 462 478 q 613 478 725 426 z m 455 406 q 352 406 352 331 q 352 254 454 254 q 557 254 557 331 q 557 406 455 406 z m 243 -39 q 207 -61 207 -83 q 207 -141 469 -141 q 755 -141 755 -89 q 755 -40 617 -40 z"},"j":{"x_min":0,"x_max":587,"ha":587,"o":"m 358 697 q 416 697 461 668 q 505 640 505 603 q 505 566 461 537 q 416 508 358 508 q 301 508 256 537 q 212 565 212 603 q 212 640 256 669 q 301 697 358 697 z m 505 478 l 505 0 q 505 -72 494 -100 q 482 -127 440 -156 q 344 -222 207 -222 q 85 -222 7 -188 q -72 -153 -72 -99 q -72 -18 82 -18 q 98 -18 134 -22 q 131 -44 130 -62 q 127 -117 177 -117 q 227 -117 227 -47 l 228 0 l 228 345 l 5 467 z"},"i":{"x_min":0,"x_max":613,"ha":613,"o":"m 312 697 q 370 697 414 668 q 459 640 459 603 q 459 566 414 537 q 370 508 312 508 q 254 508 210 537 q 166 565 166 603 q 166 640 210 669 q 254 697 312 697 z m 459 478 l 459 122 l 645 0 l -8 0 l 181 122 l 181 344 l -8 467 z"},"y":{"x_min":0,"x_max":1049,"ha":1049,"o":"m 1114 478 l 933 356 l 696 -64 q 647 -150 575 -186 q 502 -222 377 -222 q 266 -222 192 -188 q 118 -155 118 -104 q 118 -65 174 -34 q 229 -4 299 -4 q 327 -4 379 -11 q 365 -50 365 -71 q 365 -124 416 -124 q 463 -124 483 -83 l 511 -28 l 151 356 l -71 478 l 595 478 l 473 373 l 637 185 l 746 367 l 613 478 z"},"@":{"x_min":0,"x_max":664,"ha":664,"o":"m 573 172 l 646 172 q 604 90 523 41 q 441 -9 349 -9 q 208 -9 109 89 q 10 188 10 328 q 10 467 108 564 q 206 661 346 661 q 473 661 563 579 q 653 498 653 383 q 653 292 587 223 q 521 153 436 153 q 389 153 364 187 q 301 149 264 149 q 207 149 170 189 q 133 228 133 288 q 133 369 193 434 q 252 499 326 499 q 385 499 424 459 l 433 483 l 538 483 l 462 246 q 459 237 458 232 q 454 223 454 218 q 453 201 471 201 q 512 201 551 259 q 589 317 589 379 q 589 470 518 537 q 446 604 348 604 q 234 604 156 524 q 79 445 79 328 q 79 210 158 129 q 238 47 353 47 q 490 47 573 172 z m 364 292 l 386 355 q 396 384 396 402 q 396 442 360 442 q 323 442 285 377 q 246 312 246 249 q 246 198 283 198 q 331 198 364 292 z"},".":{"x_min":0,"x_max":440,"ha":440,"o":"m 220 179 q 277 179 322 150 q 366 122 366 85 q 366 48 322 19 q 277 -10 220 -10 q 162 -10 118 19 q 73 47 73 85 q 73 122 118 151 q 162 179 220 179 z"},"p":{"x_min":0,"x_max":1011,"ha":1011,"o":"m -58 467 l 409 478 l 409 390 q 500 489 637 489 q 772 489 877 408 q 983 327 983 223 q 983 122 881 50 q 779 -22 635 -22 q 472 -22 409 93 l 409 -89 l 631 -211 l -58 -211 l 131 -89 l 131 345 z m 561 384 q 428 384 428 239 q 428 88 565 88 q 685 88 685 237 q 685 384 561 384 z"},"X":{"x_min":0,"x_max":1445,"ha":1445,"o":"m 1401 667 l 1179 550 l 898 357 l 1248 117 l 1459 0 l 691 0 l 836 100 l 669 217 l 498 100 l 664 0 l 0 0 l 212 111 l 517 315 l 187 545 l -13 667 l 737 667 l 604 556 l 740 466 l 898 567 l 753 667 z"},"*":{"x_min":0,"x_max":543,"ha":543,"o":"m 271 687 l 325 527 l 497 527 l 356 424 l 407 259 l 271 360 l 125 259 l 182 424 l 47 527 l 218 527 z"},"Y":{"x_min":0,"x_max":1268,"ha":1268,"o":"m 1334 667 l 1112 533 l 809 241 l 809 156 l 1053 0 l 226 0 l 470 156 l 470 241 l 155 544 l -67 667 l 717 667 l 550 544 l 727 383 l 898 556 l 731 667 z"},"c":{"x_min":0,"x_max":876,"ha":876,"o":"m 802 237 q 851 196 851 153 q 851 73 748 24 q 645 -25 477 -25 q 294 -25 161 48 q 28 121 28 221 q 28 333 166 413 q 305 493 500 493 q 638 493 739 450 q 841 407 841 350 q 841 270 712 270 q 678 270 630 280 q 639 306 639 323 q 639 356 599 379 q 560 401 500 401 q 330 401 330 233 q 330 80 542 80 q 802 80 802 237 z"},"!":{"x_min":0,"x_max":453,"ha":453,"o":"m 227 179 q 284 179 328 150 q 373 122 373 85 q 373 48 328 19 q 284 -10 227 -10 q 169 -10 125 19 q 80 47 80 85 q 80 122 125 151 q 169 179 227 179 z m 231 228 l 219 228 l 93 527 q 83 551 83 572 q 83 618 124 651 q 166 684 224 684 q 285 684 325 650 q 365 617 365 565 q 365 545 357 527 z"},"/":{"x_min":0,"x_max":734,"ha":734,"o":"m 583 700 l 708 700 l 145 -100 l 27 -100 z"},"[":{"x_min":0,"x_max":482,"ha":482,"o":"m 449 700 l 449 660 l 275 660 l 275 -82 l 449 -82 l 449 -122 l 53 -122 l 53 700 z"},"6":{"x_min":0,"x_max":1175,"ha":1175,"o":"m 396 348 q 508 426 690 426 q 889 426 1024 363 q 1159 300 1159 208 q 1159 112 1000 45 q 841 -22 615 -22 q 360 -22 191 73 q 23 167 23 310 q 23 470 205 580 q 387 690 650 690 q 816 690 948 643 q 1080 596 1080 537 q 1080 460 902 460 q 806 460 743 477 q 746 496 746 508 q 746 580 608 580 q 492 580 444 528 q 396 476 396 348 z m 604 321 q 519 321 460 286 q 402 251 402 200 q 402 151 456 120 q 509 88 591 88 q 782 88 782 207 q 782 258 733 290 q 684 321 604 321 z"},"r":{"x_min":0,"x_max":892,"ha":892,"o":"m -17 467 l 438 478 l 438 333 q 526 478 674 478 q 773 478 837 439 q 900 400 900 339 q 900 229 742 229 q 700 229 635 240 q 662 280 662 306 q 662 368 593 368 q 532 368 491 319 q 450 270 450 198 l 450 122 l 672 0 l -18 0 l 172 122 l 172 344 z"},"2":{"x_min":0,"x_max":1152,"ha":1152,"o":"m 1093 321 l 1093 0 l 31 0 q 142 172 415 281 l 526 325 q 723 403 723 488 q 723 583 543 583 q 352 583 352 452 q 352 402 405 354 q 360 343 317 343 q 198 343 126 380 q 53 417 53 479 q 53 567 206 627 q 358 688 583 688 q 807 688 958 627 q 1110 567 1110 479 q 1110 425 1050 388 q 991 352 812 295 l 676 252 q 468 187 335 132 l 876 132 z"},"{":{"x_min":0,"x_max":528,"ha":528,"o":"m 250 264 q 310 224 310 136 l 310 -64 l 310 -75 q 310 -113 325 -122 q 341 -131 410 -131 l 476 -131 l 476 -171 l 228 -171 q 88 -171 88 -27 l 88 165 q 88 239 17 250 l 17 290 q 77 299 83 334 l 87 358 l 88 363 l 88 554 q 88 637 124 668 q 160 700 254 700 l 476 700 l 476 660 l 394 660 q 335 660 323 652 q 310 644 310 606 l 310 594 l 310 393 q 310 308 250 264 z"},"9":{"x_min":0,"x_max":1202,"ha":1202,"o":"m 792 319 q 679 241 498 241 q 300 241 165 304 q 30 367 30 459 q 30 555 189 622 q 348 689 574 689 q 829 689 997 594 q 1166 500 1166 357 q 1166 197 984 87 q 802 -23 538 -23 q 372 -23 240 24 q 108 71 108 130 q 108 207 286 207 q 382 207 446 190 q 442 171 442 159 q 442 87 580 87 q 697 87 745 139 q 792 191 792 319 z m 591 591 q 508 591 457 558 q 406 525 406 471 q 406 419 455 388 q 504 356 584 356 q 670 356 728 391 q 786 426 786 478 q 786 528 732 560 q 678 591 591 591 z"}," ":{"x_min":0,"x_max":300,"ha":300,"o":""},"I":{"x_min":0,"x_max":882,"ha":882,"o":"m 30 667 l 852 667 l 607 511 l 607 156 l 852 0 l 30 0 l 274 156 l 274 511 z"},"H":{"x_min":0,"x_max":1578,"ha":1578,"o":"m 793 667 l 1571 667 l 1327 511 l 1327 156 l 1571 0 l 793 0 l 982 156 l 982 265 l 596 265 l 596 156 l 785 0 l 7 0 l 251 156 l 251 511 l 7 667 l 785 667 l 596 511 l 596 432 l 982 432 l 982 511 z"},"4":{"x_min":0,"x_max":1233,"ha":1233,"o":"m 953 667 l 953 299 l 1201 299 l 1118 189 l 953 189 l 953 156 l 1219 0 l 319 0 l 619 156 l 619 189 l 14 189 l 14 314 l 642 667 z m 619 299 l 619 508 l 261 299 z"},"~":{"x_min":0,"x_max":667,"ha":667,"o":"m 194 525 l 91 613 q 152 772 253 772 q 277 772 320 757 l 363 742 l 395 730 q 414 723 424 723 q 450 723 476 775 l 579 688 q 515 526 421 526 q 398 526 357 541 l 341 546 q 313 555 309 557 l 271 570 q 257 575 245 575 q 220 575 194 525 z"},"D":{"x_min":0,"x_max":1477,"ha":1477,"o":"m 7 667 l 883 667 q 1033 667 1118 645 q 1204 624 1286 567 q 1444 457 1444 323 q 1444 180 1282 90 q 1119 0 860 0 l 7 0 l 251 154 l 251 511 z m 596 132 l 759 132 q 932 132 989 170 q 1046 208 1046 322 q 1046 548 763 548 l 596 548 z"},"^":{"x_min":0,"x_max":500,"ha":500,"o":"m 189 328 l 0 328 l 129 672 l 371 672 l 500 328 l 312 328 l 250 525 z"},"0":{"x_min":0,"x_max":1237,"ha":1237,"o":"m 633 689 q 855 689 1028 580 q 1201 470 1201 329 q 1201 191 1022 85 q 844 -22 614 -22 q 383 -22 209 81 q 36 183 36 320 q 36 464 218 577 q 399 689 633 689 z m 626 565 q 424 565 424 322 q 424 102 621 102 q 813 102 813 326 q 813 565 626 565 z"},"F":{"x_min":0,"x_max":1333,"ha":1333,"o":"m 7 667 l 1315 667 l 1315 344 l 1054 548 l 596 548 l 596 411 l 844 411 l 1038 491 l 1038 167 l 844 266 l 596 266 l 596 155 l 842 0 l 7 0 l 251 155 l 251 514 z"},"`":{"x_min":0,"x_max":500,"ha":500,"o":"m 24 775 l 326 775 l 396 567 l 258 567 z"},"k":{"x_min":0,"x_max":1173,"ha":1173,"o":"m 442 700 l 442 241 l 648 362 l 487 478 l 1161 478 l 831 295 l 1029 123 l 1218 0 l 586 0 l 705 100 l 603 197 l 442 111 l 571 0 l -25 0 l 164 123 l 164 567 l -25 689 z"},"u":{"x_min":0,"x_max":1113,"ha":1113,"o":"m 955 478 l 955 122 l 1144 0 l 677 0 l 677 100 q 585 -22 404 -22 q 295 -22 217 22 q 140 66 140 128 l 140 344 l -49 467 l 417 478 l 417 211 q 417 150 442 126 q 466 102 525 102 q 592 102 635 140 q 677 179 677 240 l 677 344 l 453 467 z"},"]":{"x_min":0,"x_max":482,"ha":482,"o":"m 33 -122 l 33 -82 l 207 -82 l 207 660 l 33 660 l 33 700 l 429 700 l 429 -122 z"},"U":{"x_min":0,"x_max":1452,"ha":1452,"o":"m 1478 667 l 1233 511 l 1233 226 q 1233 94 1116 30 q 1000 -34 757 -34 q 519 -34 368 39 q 218 111 218 226 l 218 511 l -27 667 l 784 667 l 562 511 l 562 257 q 562 175 619 138 q 675 101 800 101 q 928 101 987 138 q 1045 176 1045 257 l 1045 511 l 823 667 z"},"o":{"x_min":0,"x_max":984,"ha":984,"o":"m 504 493 q 682 493 819 411 q 956 329 956 222 q 956 120 820 47 q 684 -25 493 -25 q 301 -25 165 51 q 29 126 29 234 q 29 341 168 417 q 308 493 504 493 z m 489 395 q 331 395 331 229 q 331 73 493 73 q 650 73 650 229 q 650 395 489 395 z"},"N":{"x_min":0,"x_max":1420,"ha":1420,"o":"m 601 667 l 1016 307 l 1016 511 l 771 667 l 1454 667 l 1209 511 l 1209 0 l 865 0 l 445 379 l 445 156 l 690 0 l 7 0 l 251 156 l 251 511 l 7 667 z"},"+":{"x_min":0,"x_max":500,"ha":500,"o":"m -2 423 l 198 423 l 198 629 l 298 629 l 298 423 l 501 423 l 501 327 l 298 327 l 298 119 l 198 119 l 198 327 l -2 327 z"},"G":{"x_min":0,"x_max":1459,"ha":1459,"o":"m 1223 667 l 1223 373 q 980 565 698 565 q 572 565 502 500 q 432 435 432 319 q 432 90 709 90 q 836 90 915 143 l 915 179 l 643 337 l 1480 337 l 1237 179 l 1237 -34 l 1089 37 q 882 -33 661 -33 q 394 -33 214 66 q 33 166 33 313 q 33 467 230 578 q 427 689 701 689 q 935 689 1102 601 z"},"q":{"x_min":0,"x_max":991,"ha":991,"o":"m 880 478 l 880 -100 l 1069 -211 l 392 -211 l 603 -100 l 603 90 q 524 -22 385 -22 q 246 -22 137 54 q 28 131 28 229 q 28 333 150 411 q 272 489 436 489 q 597 489 721 395 l 742 378 l 858 478 z m 455 379 q 317 379 317 222 q 317 76 446 76 q 590 76 590 239 q 590 379 455 379 z"},"d":{"x_min":0,"x_max":1041,"ha":1041,"o":"m 874 700 l 874 122 l 1096 0 l 596 0 l 596 89 q 558 26 507 2 q 456 -22 362 -22 q 215 -22 122 47 q 29 116 29 225 q 29 329 132 409 q 236 490 370 490 q 511 490 596 376 l 596 567 l 374 689 z m 451 392 q 316 392 316 230 q 316 76 443 76 q 585 76 585 225 q 585 392 451 392 z"},"1":{"x_min":0,"x_max":900,"ha":900,"o":"m 646 667 l 646 156 l 913 0 l 13 0 l 313 156 l 313 522 l 13 667 z"},"5":{"x_min":0,"x_max":1129,"ha":1129,"o":"m 171 667 l 1033 667 l 924 528 l 327 528 l 295 420 q 438 480 602 480 q 817 480 958 408 q 1099 335 1099 224 q 1099 122 934 50 q 770 -22 537 -22 q 323 -22 176 34 q 30 90 30 171 q 30 218 86 250 q 143 283 225 283 q 260 283 327 271 q 312 236 312 213 q 312 102 524 102 q 727 102 727 235 q 727 365 529 365 q 397 365 295 303 l 110 372 z"}}}
